<?xml version="1.0" encoding="UTF-8"?>
<svg width="19px" height="18px" viewBox="0 0 19 18" version="1.1" xmlns="http://www.w3.org/2000/svg" xmlns:xlink="http://www.w3.org/1999/xlink">
    <title>Group 5</title>
    <defs>
        <polygon id="path-1" points="0 0 19 0 19 18 0 18"></polygon>
    </defs>
    <g id="청첩장" stroke="none" stroke-width="1" fill="none" fill-rule="evenodd">
        <g id="시안" transform="translate(-148, -5840)">
            <g id="하단" transform="translate(0, 5806)">
                <g id="Group-5" transform="translate(148, 34)">
                    <polygon id="Fill-1" fill="#381E1F" points="7 8 8 8 7.52025203 6"></polygon>
                    <g id="Group-4">
                        <mask id="mask-2" fill="white">
                            <use xlink:href="#path-1"></use>
                        </mask>
                        <g id="Clip-3"></g>
                        <path d="M15.3913812,10.0176212 L14.1024586,8.20375509 L13.8074269,8.44753893 C13.8074269,8.44753893 13.807281,9.34356865 13.8074269,9.81579646 C13.8077186,10.2223034 12.8037648,10.2232057 12.8036161,9.81639802 C12.8033273,9.5587782 12.8254948,6.08113619 12.815286,5.69658635 C12.8100359,5.48453501 13.0738581,5.37489995 13.331701,5.37489995 C13.5727724,5.37489995 13.8084477,5.47069903 13.8135521,5.66861362 C13.8269693,6.19016969 13.8139896,7.13372296 13.8139896,7.13372296 C13.8139896,7.13372296 15.2694601,5.63116625 15.4765511,5.41941569 C15.6902048,5.1998448 16.3518751,5.88743256 16.1380755,6.10625149 C15.7718745,6.48177788 14.842736,7.51782163 14.842736,7.51782163 L16.2117241,9.37725624 C16.4720462,9.73157749 15.6521409,10.3720929 15.3913812,10.0176212 L15.3913812,10.0176212 Z M12.2332437,10.0961253 C11.7737059,10.0961253 10.7370843,10.1012386 10.2699628,10.1012386 C9.80298724,10.1012386 9.88144847,9.53952815 9.88144847,9.53952815 C9.88144847,9.53952815 9.87838586,6.71307927 9.87663579,5.83599883 C9.87619828,5.52739645 10.1411872,5.37279448 10.406322,5.37279448 C10.670436,5.37279448 10.9342582,5.5264941 10.9351332,5.83344218 C10.9364458,6.46839308 10.9325081,9.082941 10.9325081,9.082941 C10.9325081,9.082941 11.7710808,9.08790391 12.2309103,9.08790391 C12.6903023,9.08790391 12.6926357,10.0961253 12.2332437,10.0961253 L12.2332437,10.0961253 Z M8.60535965,9.85971064 C8.36764253,9.21272846 8.42918647,9.18400377 8.42918647,9.18400377 L6.63989119,9.18400377 L6.44417562,9.88963845 C6.23548041,10.3841241 5.33580133,9.98077541 5.54464238,9.48598895 C5.83311138,8.8015594 6.70231016,6.22099984 6.94279822,5.67462926 C7.03817674,5.45836697 7.26218502,5.37189213 7.49173517,5.37189213 C7.76912042,5.37189213 8.05583934,5.4980702 8.13561313,5.67462926 C8.30901537,6.05602089 9.25930048,8.74847137 9.53406063,9.49651632 C9.72671359,10.0201779 8.79772092,10.3827706 8.60535965,9.85971064 L8.60535965,9.85971064 Z M4.86707568,9.74075134 C4.86838823,10.2113248 3.85247569,10.204858 3.85116314,9.73383335 C3.85641333,9.08865586 3.85028811,6.3189044 3.85028811,6.3189044 L2.87243948,6.3189044 C2.29914746,6.3189044 2.29739739,5.35294286 2.87112693,5.35204052 C2.87112693,5.35204052 5.16021151,5.37144096 5.84507015,5.37144096 C6.45278011,5.37204252 6.45234259,6.35770528 5.8444868,6.35770528 C5.19900461,6.35725411 4.87145084,6.35499825 4.87145084,6.35499825 L4.86707568,9.74075134 Z M9.50008021,-7.51955113e-05 C4.2532405,-7.51955113e-05 0,3.46703944 0,7.74476169 C0,10.5286499 1.80183741,12.9688946 4.50685404,14.3341443 C4.3082217,15.0987323 3.78713994,17.1052493 3.68315693,17.5341645 C3.55408966,18.0669999 3.87187224,18.0600819 4.08071329,17.9173608 C4.24434434,17.8048684 6.68378864,16.0937193 7.73645254,15.3554498 C8.30799449,15.4429773 8.89732877,15.4892978 9.50008021,15.4892978 C14.7467741,15.4892978 19.0000146,12.0221832 19.0000146,7.74476169 C19.0000146,3.46703944 14.7467741,-7.51955113e-05 9.50008021,-7.51955113e-05 L9.50008021,-7.51955113e-05 Z" id="Fill-2" fill="#4E4E4E" mask="url(#mask-2)"></path>
                    </g>
                </g>
            </g>
        </g>
    </g>
</svg>